<mxfile host="app.diagrams.net" modified="2022-08-31T12:21:46.860Z" agent="5.0 (X11; Linux x86_64) AppleWebKit/537.36 (KHTML, like Gecko) Chrome/104.0.0.0 Safari/537.36" etag="9WsbOHABlCpRFI6TIqGu" version="20.2.7" type="github">
  <diagram name="Page-1" id="58cdce13-f638-feb5-8d6f-7d28b1aa9fa0">
    <mxGraphModel dx="1038" dy="584" grid="1" gridSize="10" guides="1" tooltips="1" connect="1" arrows="1" fold="1" page="1" pageScale="1" pageWidth="1100" pageHeight="850" background="none" math="0" shadow="0">
      <root>
        <mxCell id="0" />
        <mxCell id="1" parent="0" />
        <mxCell id="2a3bc250acf0617d-8" value="게시판 서비스" style="shape=umlFrame;whiteSpace=wrap;html=1;rounded=1;shadow=0;comic=0;labelBackgroundColor=none;strokeWidth=1;fontFamily=Verdana;fontSize=12;align=center;width=110;height=25;" parent="1" vertex="1">
          <mxGeometry x="160" y="120" width="700" height="520" as="geometry" />
        </mxCell>
        <mxCell id="382b91b5511bd0f7-5" value="게시판 보기" style="rounded=1;whiteSpace=wrap;html=1;arcSize=24;fillColor=#ffffc0;strokeColor=#ff0000;shadow=0;comic=0;labelBackgroundColor=none;fontFamily=Verdana;fontSize=12;fontColor=#000000;align=center;" parent="1" vertex="1">
          <mxGeometry x="270" y="350" width="120" height="20" as="geometry" />
        </mxCell>
        <mxCell id="382b91b5511bd0f7-6" value="회원 로그인" style="rounded=1;whiteSpace=wrap;html=1;arcSize=24;fillColor=#ffffc0;strokeColor=#ff0000;shadow=0;comic=0;labelBackgroundColor=none;fontFamily=Verdana;fontSize=12;fontColor=#000000;align=center;" parent="1" vertex="1">
          <mxGeometry x="270" y="160" width="120" height="20" as="geometry" />
        </mxCell>
        <mxCell id="CC-bhJ_GS6jNVx3ygBmE-9" style="edgeStyle=entityRelationEdgeStyle;rounded=1;orthogonalLoop=1;jettySize=auto;html=1;exitX=0;exitY=0.5;exitDx=0;exitDy=0;entryX=1;entryY=0.5;entryDx=0;entryDy=0;strokeColor=#FF0000;elbow=vertical;" edge="1" parent="1" source="382b91b5511bd0f7-7" target="382b91b5511bd0f7-5">
          <mxGeometry relative="1" as="geometry" />
        </mxCell>
        <mxCell id="382b91b5511bd0f7-7" value="일반 게시판" style="rounded=1;whiteSpace=wrap;html=1;arcSize=24;fillColor=#ffffc0;strokeColor=#ff0000;shadow=0;comic=0;labelBackgroundColor=none;fontFamily=Verdana;fontSize=12;fontColor=#000000;align=center;" parent="1" vertex="1">
          <mxGeometry x="450" y="350" width="120" height="20" as="geometry" />
        </mxCell>
        <mxCell id="CC-bhJ_GS6jNVx3ygBmE-33" style="edgeStyle=entityRelationEdgeStyle;rounded=1;orthogonalLoop=1;jettySize=auto;html=1;exitX=0;exitY=0.5;exitDx=0;exitDy=0;entryX=1;entryY=0.5;entryDx=0;entryDy=0;strokeColor=#FF0000;elbow=vertical;" edge="1" parent="1" source="382b91b5511bd0f7-9" target="CC-bhJ_GS6jNVx3ygBmE-31">
          <mxGeometry relative="1" as="geometry" />
        </mxCell>
        <mxCell id="CC-bhJ_GS6jNVx3ygBmE-34" style="edgeStyle=entityRelationEdgeStyle;rounded=1;orthogonalLoop=1;jettySize=auto;html=1;exitX=0;exitY=0.5;exitDx=0;exitDy=0;entryX=1;entryY=0.5;entryDx=0;entryDy=0;strokeColor=#FF0000;elbow=vertical;" edge="1" parent="1" source="382b91b5511bd0f7-9" target="CC-bhJ_GS6jNVx3ygBmE-13">
          <mxGeometry relative="1" as="geometry" />
        </mxCell>
        <mxCell id="CC-bhJ_GS6jNVx3ygBmE-35" style="edgeStyle=entityRelationEdgeStyle;rounded=1;orthogonalLoop=1;jettySize=auto;html=1;exitX=0;exitY=0.5;exitDx=0;exitDy=0;entryX=1;entryY=0.5;entryDx=0;entryDy=0;strokeColor=#FF0000;elbow=vertical;" edge="1" parent="1" source="382b91b5511bd0f7-9" target="CC-bhJ_GS6jNVx3ygBmE-14">
          <mxGeometry relative="1" as="geometry" />
        </mxCell>
        <mxCell id="CC-bhJ_GS6jNVx3ygBmE-36" style="edgeStyle=entityRelationEdgeStyle;rounded=1;orthogonalLoop=1;jettySize=auto;html=1;exitX=0;exitY=0.5;exitDx=0;exitDy=0;entryX=1;entryY=0.5;entryDx=0;entryDy=0;strokeColor=#FF0000;elbow=vertical;" edge="1" parent="1" source="382b91b5511bd0f7-9" target="CC-bhJ_GS6jNVx3ygBmE-15">
          <mxGeometry relative="1" as="geometry" />
        </mxCell>
        <mxCell id="CC-bhJ_GS6jNVx3ygBmE-37" style="edgeStyle=entityRelationEdgeStyle;rounded=1;orthogonalLoop=1;jettySize=auto;html=1;exitX=0;exitY=0.5;exitDx=0;exitDy=0;entryX=1;entryY=0.5;entryDx=0;entryDy=0;strokeColor=#FF0000;elbow=vertical;" edge="1" parent="1" source="382b91b5511bd0f7-9" target="CC-bhJ_GS6jNVx3ygBmE-16">
          <mxGeometry relative="1" as="geometry" />
        </mxCell>
        <mxCell id="CC-bhJ_GS6jNVx3ygBmE-38" style="edgeStyle=entityRelationEdgeStyle;rounded=1;orthogonalLoop=1;jettySize=auto;html=1;exitX=0;exitY=0.5;exitDx=0;exitDy=0;entryX=1;entryY=0.5;entryDx=0;entryDy=0;strokeColor=#FF0000;elbow=vertical;" edge="1" parent="1" source="382b91b5511bd0f7-9" target="CC-bhJ_GS6jNVx3ygBmE-17">
          <mxGeometry relative="1" as="geometry" />
        </mxCell>
        <mxCell id="382b91b5511bd0f7-9" value="DB" style="rounded=1;whiteSpace=wrap;html=1;arcSize=24;fillColor=#ffffc0;strokeColor=#ff0000;shadow=0;comic=0;labelBackgroundColor=none;fontFamily=Verdana;fontSize=12;fontColor=#000000;align=center;" parent="1" vertex="1">
          <mxGeometry x="880" y="350" width="120" height="20" as="geometry" />
        </mxCell>
        <mxCell id="CC-bhJ_GS6jNVx3ygBmE-10" style="edgeStyle=entityRelationEdgeStyle;rounded=1;orthogonalLoop=1;jettySize=auto;html=1;exitX=0;exitY=0.5;exitDx=0;exitDy=0;strokeColor=#FF0000;elbow=vertical;entryX=1;entryY=0.5;entryDx=0;entryDy=0;" edge="1" parent="1" source="382b91b5511bd0f7-10" target="382b91b5511bd0f7-5">
          <mxGeometry relative="1" as="geometry">
            <mxPoint x="590" y="430" as="targetPoint" />
          </mxGeometry>
        </mxCell>
        <mxCell id="382b91b5511bd0f7-10" value="해시태그 게시판" style="rounded=1;whiteSpace=wrap;html=1;arcSize=24;fillColor=#ffffc0;strokeColor=#ff0000;shadow=0;comic=0;labelBackgroundColor=none;fontFamily=Verdana;fontSize=12;fontColor=#000000;align=center;" parent="1" vertex="1">
          <mxGeometry x="450" y="470" width="120" height="20" as="geometry" />
        </mxCell>
        <mxCell id="2a3bc250acf0617d-9" style="edgeStyle=entityRelationEdgeStyle;html=1;labelBackgroundColor=none;endArrow=open;endSize=8;strokeColor=#ff0000;fontFamily=Verdana;fontSize=12;align=left;exitX=0.9;exitY=0.5;exitDx=0;exitDy=0;exitPerimeter=0;" parent="1" source="CC-bhJ_GS6jNVx3ygBmE-1" target="382b91b5511bd0f7-6" edge="1">
          <mxGeometry relative="1" as="geometry">
            <mxPoint x="160" y="150" as="sourcePoint" />
          </mxGeometry>
        </mxCell>
        <mxCell id="CC-bhJ_GS6jNVx3ygBmE-7" style="edgeStyle=entityRelationEdgeStyle;rounded=1;orthogonalLoop=1;jettySize=auto;html=1;exitX=0.9;exitY=0.5;exitDx=0;exitDy=0;exitPerimeter=0;entryX=0;entryY=0.5;entryDx=0;entryDy=0;fillColor=#f8cecc;strokeColor=#FF0000;elbow=vertical;" edge="1" parent="1" source="CC-bhJ_GS6jNVx3ygBmE-1" target="382b91b5511bd0f7-5">
          <mxGeometry relative="1" as="geometry" />
        </mxCell>
        <mxCell id="CC-bhJ_GS6jNVx3ygBmE-8" style="edgeStyle=entityRelationEdgeStyle;rounded=1;orthogonalLoop=1;jettySize=auto;html=1;exitX=0.9;exitY=0.5;exitDx=0;exitDy=0;exitPerimeter=0;entryX=0;entryY=0.5;entryDx=0;entryDy=0;fillColor=#f8cecc;strokeColor=#FF0000;elbow=vertical;" edge="1" parent="1" source="CC-bhJ_GS6jNVx3ygBmE-1" target="CC-bhJ_GS6jNVx3ygBmE-6">
          <mxGeometry relative="1" as="geometry" />
        </mxCell>
        <mxCell id="CC-bhJ_GS6jNVx3ygBmE-1" value="User" style="shape=actor;whiteSpace=wrap;html=1;labelPosition=center;verticalLabelPosition=bottom;align=center;verticalAlign=top;" vertex="1" parent="1">
          <mxGeometry x="100" y="180" width="40" height="60" as="geometry" />
        </mxCell>
        <mxCell id="CC-bhJ_GS6jNVx3ygBmE-6" value="게시글 보기" style="rounded=1;whiteSpace=wrap;html=1;arcSize=24;fillColor=#ffffc0;strokeColor=#ff0000;shadow=0;comic=0;labelBackgroundColor=none;fontFamily=Verdana;fontSize=12;fontColor=#000000;align=center;" vertex="1" parent="1">
          <mxGeometry x="270" y="540" width="120" height="20" as="geometry" />
        </mxCell>
        <mxCell id="CC-bhJ_GS6jNVx3ygBmE-21" style="edgeStyle=entityRelationEdgeStyle;rounded=1;orthogonalLoop=1;jettySize=auto;html=1;exitX=0;exitY=0.5;exitDx=0;exitDy=0;entryX=1;entryY=0.5;entryDx=0;entryDy=0;strokeColor=#0A0000;elbow=vertical;" edge="1" parent="1" source="CC-bhJ_GS6jNVx3ygBmE-13" target="382b91b5511bd0f7-7">
          <mxGeometry relative="1" as="geometry" />
        </mxCell>
        <mxCell id="CC-bhJ_GS6jNVx3ygBmE-24" style="edgeStyle=entityRelationEdgeStyle;rounded=1;orthogonalLoop=1;jettySize=auto;html=1;exitX=0;exitY=0.5;exitDx=0;exitDy=0;entryX=1;entryY=0.5;entryDx=0;entryDy=0;strokeColor=#00FFEE;elbow=vertical;" edge="1" parent="1" source="CC-bhJ_GS6jNVx3ygBmE-13" target="382b91b5511bd0f7-10">
          <mxGeometry relative="1" as="geometry" />
        </mxCell>
        <mxCell id="CC-bhJ_GS6jNVx3ygBmE-13" value="게시글 쓰기" style="rounded=1;whiteSpace=wrap;html=1;arcSize=24;fillColor=#ffffc0;strokeColor=#ff0000;shadow=0;comic=0;labelBackgroundColor=none;fontFamily=Verdana;fontSize=12;fontColor=#000000;align=center;" vertex="1" parent="1">
          <mxGeometry x="640" y="350" width="120" height="20" as="geometry" />
        </mxCell>
        <mxCell id="CC-bhJ_GS6jNVx3ygBmE-27" style="edgeStyle=entityRelationEdgeStyle;rounded=1;orthogonalLoop=1;jettySize=auto;html=1;exitX=0;exitY=0.5;exitDx=0;exitDy=0;entryX=1;entryY=0.5;entryDx=0;entryDy=0;strokeColor=#0A0000;elbow=vertical;" edge="1" parent="1" source="CC-bhJ_GS6jNVx3ygBmE-14" target="382b91b5511bd0f7-7">
          <mxGeometry relative="1" as="geometry" />
        </mxCell>
        <mxCell id="CC-bhJ_GS6jNVx3ygBmE-28" style="edgeStyle=entityRelationEdgeStyle;rounded=1;orthogonalLoop=1;jettySize=auto;html=1;entryX=1;entryY=0.5;entryDx=0;entryDy=0;strokeColor=#00FFEE;elbow=vertical;" edge="1" parent="1" source="CC-bhJ_GS6jNVx3ygBmE-14" target="382b91b5511bd0f7-10">
          <mxGeometry relative="1" as="geometry" />
        </mxCell>
        <mxCell id="CC-bhJ_GS6jNVx3ygBmE-14" value="게시판 정렬" style="rounded=1;whiteSpace=wrap;html=1;arcSize=24;fillColor=#ffffc0;strokeColor=#ff0000;shadow=0;comic=0;labelBackgroundColor=none;fontFamily=Verdana;fontSize=12;fontColor=#000000;align=center;" vertex="1" parent="1">
          <mxGeometry x="640" y="410" width="120" height="20" as="geometry" />
        </mxCell>
        <mxCell id="CC-bhJ_GS6jNVx3ygBmE-26" style="edgeStyle=entityRelationEdgeStyle;rounded=1;orthogonalLoop=1;jettySize=auto;html=1;exitX=0;exitY=0.5;exitDx=0;exitDy=0;entryX=1;entryY=0.5;entryDx=0;entryDy=0;strokeColor=#0A0000;elbow=vertical;" edge="1" parent="1" source="CC-bhJ_GS6jNVx3ygBmE-15" target="382b91b5511bd0f7-7">
          <mxGeometry relative="1" as="geometry" />
        </mxCell>
        <mxCell id="CC-bhJ_GS6jNVx3ygBmE-30" style="edgeStyle=entityRelationEdgeStyle;rounded=1;orthogonalLoop=1;jettySize=auto;html=1;exitX=0;exitY=0.5;exitDx=0;exitDy=0;entryX=1;entryY=0.5;entryDx=0;entryDy=0;strokeColor=#00FFEE;elbow=vertical;" edge="1" parent="1" source="CC-bhJ_GS6jNVx3ygBmE-15" target="382b91b5511bd0f7-10">
          <mxGeometry relative="1" as="geometry" />
        </mxCell>
        <mxCell id="CC-bhJ_GS6jNVx3ygBmE-15" value="게시판 검색" style="rounded=1;whiteSpace=wrap;html=1;arcSize=24;fillColor=#ffffc0;strokeColor=#ff0000;shadow=0;comic=0;labelBackgroundColor=none;fontFamily=Verdana;fontSize=12;fontColor=#000000;align=center;" vertex="1" parent="1">
          <mxGeometry x="640" y="470" width="120" height="20" as="geometry" />
        </mxCell>
        <mxCell id="CC-bhJ_GS6jNVx3ygBmE-19" style="edgeStyle=entityRelationEdgeStyle;rounded=1;orthogonalLoop=1;jettySize=auto;html=1;exitX=0;exitY=0.5;exitDx=0;exitDy=0;entryX=1;entryY=0.5;entryDx=0;entryDy=0;strokeColor=#FF0000;elbow=vertical;" edge="1" parent="1" source="CC-bhJ_GS6jNVx3ygBmE-16" target="CC-bhJ_GS6jNVx3ygBmE-6">
          <mxGeometry relative="1" as="geometry" />
        </mxCell>
        <mxCell id="CC-bhJ_GS6jNVx3ygBmE-16" value="게시글 수정, 삭제" style="rounded=1;whiteSpace=wrap;html=1;arcSize=24;fillColor=#ffffc0;strokeColor=#ff0000;shadow=0;comic=0;labelBackgroundColor=none;fontFamily=Verdana;fontSize=12;fontColor=#000000;align=center;" vertex="1" parent="1">
          <mxGeometry x="640" y="540" width="120" height="20" as="geometry" />
        </mxCell>
        <mxCell id="CC-bhJ_GS6jNVx3ygBmE-20" style="edgeStyle=entityRelationEdgeStyle;rounded=1;orthogonalLoop=1;jettySize=auto;html=1;strokeColor=#FF0000;elbow=vertical;entryX=1;entryY=0.5;entryDx=0;entryDy=0;exitX=0;exitY=0.5;exitDx=0;exitDy=0;" edge="1" parent="1" source="CC-bhJ_GS6jNVx3ygBmE-17" target="CC-bhJ_GS6jNVx3ygBmE-6">
          <mxGeometry relative="1" as="geometry">
            <mxPoint x="386" y="600" as="targetPoint" />
            <mxPoint x="550" y="620" as="sourcePoint" />
          </mxGeometry>
        </mxCell>
        <mxCell id="CC-bhJ_GS6jNVx3ygBmE-17" value="댓글 보기, 쓰기, 삭제" style="rounded=1;whiteSpace=wrap;html=1;arcSize=24;fillColor=#ffffc0;strokeColor=#ff0000;shadow=0;comic=0;labelBackgroundColor=none;fontFamily=Verdana;fontSize=12;fontColor=#000000;align=center;" vertex="1" parent="1">
          <mxGeometry x="640" y="590" width="120" height="20" as="geometry" />
        </mxCell>
        <mxCell id="CC-bhJ_GS6jNVx3ygBmE-32" style="edgeStyle=entityRelationEdgeStyle;rounded=1;orthogonalLoop=1;jettySize=auto;html=1;exitX=0;exitY=0.5;exitDx=0;exitDy=0;entryX=1;entryY=0.5;entryDx=0;entryDy=0;strokeColor=#FF0000;elbow=vertical;" edge="1" parent="1" source="CC-bhJ_GS6jNVx3ygBmE-31" target="382b91b5511bd0f7-6">
          <mxGeometry relative="1" as="geometry" />
        </mxCell>
        <mxCell id="CC-bhJ_GS6jNVx3ygBmE-31" value="DB 인증" style="rounded=1;whiteSpace=wrap;html=1;arcSize=24;fillColor=#ffffc0;strokeColor=#ff0000;shadow=0;comic=0;labelBackgroundColor=none;fontFamily=Verdana;fontSize=12;fontColor=#000000;align=center;" vertex="1" parent="1">
          <mxGeometry x="640" y="160" width="120" height="20" as="geometry" />
        </mxCell>
      </root>
    </mxGraphModel>
  </diagram>
</mxfile>
